M48
; DRILL file {KiCad (6.0.9)} date Mon Nov 21 17:19:23 2022
; FORMAT={-:-/ absolute / inch / decimal}
; #@! TF.CreationDate,2022-11-21T17:19:23+00:00
; #@! TF.GenerationSoftware,Kicad,Pcbnew,(6.0.9)
; #@! TF.FileFunction,Plated,1,2,PTH
FMAT,2
INCH
; #@! TA.AperFunction,Plated,PTH,ViaDrill
T1C0.0157
; #@! TA.AperFunction,Plated,PTH,ComponentDrill
T2C0.0394
%
G90
G05
T1
X-0.1995Y-0.1405
X-0.1993Y0.0615
X-0.1969Y0.1969
X-0.1969Y-0.4528
X-0.1969Y-0.5118
X-0.1772Y-0.2756
X-0.1673Y-0.4528
X-0.1673Y-0.5118
X-0.1003Y-0.3532
X-0.0984Y0.3543
X-0.0669Y-0.374
X-0.0591Y0.3543
X0.0441Y0.127
X0.1181Y-0.2953
X0.1181Y-0.3248
X0.1181Y-0.3543
X0.1181Y-0.3839
X0.1476Y-0.2953
X0.1476Y-0.3248
X0.1476Y-0.3543
X0.1476Y-0.3839
X0.1521Y-0.0964
X0.1772Y-0.2953
X0.1772Y-0.3248
X0.1772Y-0.3543
X0.1772Y-0.3839
X0.1969Y0.2953
T2
X-0.187Y0.2559
T0
M30
