%TF.GenerationSoftware,KiCad,Pcbnew,(6.0.9)*%
%TF.CreationDate,2022-11-21T17:19:20+00:00*%
%TF.ProjectId,DLSB-DRIVERBOARD-V1,444c5342-2d44-4524-9956-4552424f4152,rev?*%
%TF.SameCoordinates,Original*%
%TF.FileFunction,Legend,Bot*%
%TF.FilePolarity,Positive*%
%FSLAX46Y46*%
G04 Gerber Fmt 4.6, Leading zero omitted, Abs format (unit mm)*
G04 Created by KiCad (PCBNEW (6.0.9)) date 2022-11-21 17:19:20*
%MOMM*%
%LPD*%
G01*
G04 APERTURE LIST*
%ADD10C,0.150000*%
%ADD11C,0.120000*%
G04 APERTURE END LIST*
D10*
%TO.C,C2*%
X6787142Y9391666D02*
X6834761Y9439285D01*
X6882380Y9582142D01*
X6882380Y9677380D01*
X6834761Y9820238D01*
X6739523Y9915476D01*
X6644285Y9963095D01*
X6453809Y10010714D01*
X6310952Y10010714D01*
X6120476Y9963095D01*
X6025238Y9915476D01*
X5930000Y9820238D01*
X5882380Y9677380D01*
X5882380Y9582142D01*
X5930000Y9439285D01*
X5977619Y9391666D01*
X5977619Y9010714D02*
X5930000Y8963095D01*
X5882380Y8867857D01*
X5882380Y8629761D01*
X5930000Y8534523D01*
X5977619Y8486904D01*
X6072857Y8439285D01*
X6168095Y8439285D01*
X6310952Y8486904D01*
X6882380Y9058333D01*
X6882380Y8439285D01*
%TO.C,R1*%
X-5977619Y166666D02*
X-6453809Y500000D01*
X-5977619Y738095D02*
X-6977619Y738095D01*
X-6977619Y357142D01*
X-6930000Y261904D01*
X-6882380Y214285D01*
X-6787142Y166666D01*
X-6644285Y166666D01*
X-6549047Y214285D01*
X-6501428Y261904D01*
X-6453809Y357142D01*
X-6453809Y738095D01*
X-5977619Y-785714D02*
X-5977619Y-214285D01*
X-5977619Y-499999D02*
X-6977619Y-499999D01*
X-6834761Y-404761D01*
X-6739523Y-309523D01*
X-6691904Y-214285D01*
%TO.C,R3*%
X341666Y-7882380D02*
X675000Y-7406190D01*
X913095Y-7882380D02*
X913095Y-6882380D01*
X532142Y-6882380D01*
X436904Y-6930000D01*
X389285Y-6977619D01*
X341666Y-7072857D01*
X341666Y-7215714D01*
X389285Y-7310952D01*
X436904Y-7358571D01*
X532142Y-7406190D01*
X913095Y-7406190D01*
X8333Y-6882380D02*
X-610714Y-6882380D01*
X-277380Y-7263333D01*
X-420238Y-7263333D01*
X-515476Y-7310952D01*
X-563095Y-7358571D01*
X-610714Y-7453809D01*
X-610714Y-7691904D01*
X-563095Y-7787142D01*
X-515476Y-7834761D01*
X-420238Y-7882380D01*
X-134523Y-7882380D01*
X-39285Y-7834761D01*
X8333Y-7787142D01*
%TO.C,C1*%
X-3212857Y9166666D02*
X-3165238Y9214285D01*
X-3117619Y9357142D01*
X-3117619Y9452380D01*
X-3165238Y9595238D01*
X-3260476Y9690476D01*
X-3355714Y9738095D01*
X-3546190Y9785714D01*
X-3689047Y9785714D01*
X-3879523Y9738095D01*
X-3974761Y9690476D01*
X-4070000Y9595238D01*
X-4117619Y9452380D01*
X-4117619Y9357142D01*
X-4070000Y9214285D01*
X-4022380Y9166666D01*
X-3117619Y8214285D02*
X-3117619Y8785714D01*
X-3117619Y8500000D02*
X-4117619Y8500000D01*
X-3974761Y8595238D01*
X-3879523Y8690476D01*
X-3831904Y8785714D01*
%TO.C,R2*%
X341666Y-6882380D02*
X675000Y-6406190D01*
X913095Y-6882380D02*
X913095Y-5882380D01*
X532142Y-5882380D01*
X436904Y-5930000D01*
X389285Y-5977619D01*
X341666Y-6072857D01*
X341666Y-6215714D01*
X389285Y-6310952D01*
X436904Y-6358571D01*
X532142Y-6406190D01*
X913095Y-6406190D01*
X-39285Y-5977619D02*
X-86904Y-5930000D01*
X-182142Y-5882380D01*
X-420238Y-5882380D01*
X-515476Y-5930000D01*
X-563095Y-5977619D01*
X-610714Y-6072857D01*
X-610714Y-6168095D01*
X-563095Y-6310952D01*
X8333Y-6882380D01*
X-610714Y-6882380D01*
%TO.C,Q1*%
X-3904761Y-3647619D02*
X-3809523Y-3600000D01*
X-3714285Y-3504761D01*
X-3571428Y-3361904D01*
X-3476190Y-3314285D01*
X-3380952Y-3314285D01*
X-3428571Y-3552380D02*
X-3333333Y-3504761D01*
X-3238095Y-3409523D01*
X-3190476Y-3219047D01*
X-3190476Y-2885714D01*
X-3238095Y-2695238D01*
X-3333333Y-2600000D01*
X-3428571Y-2552380D01*
X-3619047Y-2552380D01*
X-3714285Y-2600000D01*
X-3809523Y-2695238D01*
X-3857142Y-2885714D01*
X-3857142Y-3219047D01*
X-3809523Y-3409523D01*
X-3714285Y-3504761D01*
X-3619047Y-3552380D01*
X-3428571Y-3552380D01*
X-4809523Y-3552380D02*
X-4238095Y-3552380D01*
X-4523809Y-3552380D02*
X-4523809Y-2552380D01*
X-4428571Y-2695238D01*
X-4333333Y-2790476D01*
X-4238095Y-2838095D01*
%TO.C,J3*%
X333333Y-5472380D02*
X333333Y-6186666D01*
X380952Y-6329523D01*
X476190Y-6424761D01*
X619047Y-6472380D01*
X714285Y-6472380D01*
X-47619Y-5472380D02*
X-666666Y-5472380D01*
X-333333Y-5853333D01*
X-476190Y-5853333D01*
X-571428Y-5900952D01*
X-619047Y-5948571D01*
X-666666Y-6043809D01*
X-666666Y-6281904D01*
X-619047Y-6377142D01*
X-571428Y-6424761D01*
X-476190Y-6472380D01*
X-190476Y-6472380D01*
X-95238Y-6424761D01*
X-47619Y-6377142D01*
%TO.C,U2*%
X3952380Y9761904D02*
X4761904Y9761904D01*
X4857142Y9714285D01*
X4904761Y9666666D01*
X4952380Y9571428D01*
X4952380Y9380952D01*
X4904761Y9285714D01*
X4857142Y9238095D01*
X4761904Y9190476D01*
X3952380Y9190476D01*
X4047619Y8761904D02*
X4000000Y8714285D01*
X3952380Y8619047D01*
X3952380Y8380952D01*
X4000000Y8285714D01*
X4047619Y8238095D01*
X4142857Y8190476D01*
X4238095Y8190476D01*
X4380952Y8238095D01*
X4952380Y8809523D01*
X4952380Y8190476D01*
%TO.C,J2*%
X4322380Y333333D02*
X5036666Y333333D01*
X5179523Y380952D01*
X5274761Y476190D01*
X5322380Y619047D01*
X5322380Y714285D01*
X4417619Y-95238D02*
X4370000Y-142857D01*
X4322380Y-238095D01*
X4322380Y-476190D01*
X4370000Y-571428D01*
X4417619Y-619047D01*
X4512857Y-666666D01*
X4608095Y-666666D01*
X4750952Y-619047D01*
X5322380Y-47619D01*
X5322380Y-666666D01*
D11*
%TO.C,C2*%
X5510000Y9084420D02*
X5510000Y9365580D01*
X4490000Y9084420D02*
X4490000Y9365580D01*
%TO.C,R1*%
X-5522500Y237258D02*
X-5522500Y-237258D01*
X-4477500Y237258D02*
X-4477500Y-237258D01*
%TO.C,R3*%
X-62258Y-6522500D02*
X412258Y-6522500D01*
X-62258Y-5477500D02*
X412258Y-5477500D01*
%TO.C,C1*%
X-4490000Y8859420D02*
X-4490000Y9140580D01*
X-5510000Y8859420D02*
X-5510000Y9140580D01*
%TO.C,R2*%
X-62258Y-4477500D02*
X412258Y-4477500D01*
X-62258Y-5522500D02*
X412258Y-5522500D01*
%TO.C,Q1*%
X-4000000Y-7060000D02*
X-3350000Y-7060000D01*
X-4000000Y-3940000D02*
X-2325000Y-3940000D01*
X-4000000Y-7060000D02*
X-4650000Y-7060000D01*
X-4000000Y-3940000D02*
X-4650000Y-3940000D01*
%TO.C,J3*%
X-3110000Y-10715000D02*
X-3110000Y-8215000D01*
X-3110000Y-8215000D02*
X-2060000Y-8215000D01*
X2060000Y-8215000D02*
X2060000Y-7225000D01*
X3110000Y-8215000D02*
X2060000Y-8215000D01*
X1940000Y-12685000D02*
X-1940000Y-12685000D01*
X3110000Y-10715000D02*
X3110000Y-8215000D01*
%TO.C,U2*%
X3410000Y10910000D02*
X2150000Y10910000D01*
X-3410000Y7150000D02*
X-3410000Y10910000D01*
X-3410000Y10910000D02*
X-2150000Y10910000D01*
X3410000Y4900000D02*
X3410000Y10910000D01*
%TO.C,J2*%
X-3870000Y-2600000D02*
X-3870000Y2600000D01*
X3870000Y-2600000D02*
X3300000Y-2600000D01*
X1780000Y2600000D02*
X760000Y2600000D01*
X-760000Y-2600000D02*
X-1780000Y-2600000D01*
X1780000Y-2600000D02*
X760000Y-2600000D01*
X3870000Y2600000D02*
X3300000Y2600000D01*
X3870000Y-2600000D02*
X3870000Y2600000D01*
X-760000Y2600000D02*
X-1780000Y2600000D01*
X3300000Y-4040000D02*
X3300000Y-2600000D01*
X-3300000Y-2600000D02*
X-3870000Y-2600000D01*
X-3300000Y2600000D02*
X-3870000Y2600000D01*
%TD*%
M02*
